<svg xmlns="http://www.w3.org/2000/svg" viewBox="5.348 4.000 516.434 98.338" role="img" aria-label="Echo Pantry"><title>Echo Pantry</title><path d="M54.053 68.574V80.0H6.348V8.906H54.004V20.381H20.996V37.861H49.121V48.994H20.996V68.574Z M80.945 69.99Q83.533 69.99 85.535 68.989Q87.537 67.988 88.684 66.157Q89.832 64.326 89.88 61.836H103.113Q103.064 67.402 100.134 71.724Q97.205 76.045 92.273 78.511Q87.341 80.977 81.238 80.977Q75.086 80.977 70.52 78.926Q65.955 76.875 62.927 73.237Q59.9 69.6 58.386 64.741Q56.873 59.883 56.873 54.316V52.9Q56.873 47.285 58.386 42.427Q59.9 37.568 62.927 33.931Q65.955 30.293 70.496 28.242Q75.037 26.191 81.14 26.191Q87.634 26.191 92.542 28.682Q97.449 31.172 100.256 35.786Q103.064 40.4 103.113 46.699H89.88Q89.832 44.062 88.782 41.914Q87.732 39.766 85.754 38.472Q83.777 37.178 80.896 37.178Q77.82 37.178 75.867 38.472Q73.914 39.766 72.839 41.987Q71.765 44.209 71.35 47.017Q70.935 49.824 70.935 52.9V54.316Q70.935 57.393 71.326 60.225Q71.716 63.057 72.815 65.254Q73.914 67.451 75.867 68.721Q77.82 69.99 80.945 69.99Z M122.339 5.0V33.027Q124.878 29.902 128.345 28.096Q132.007 26.191 136.499 26.191Q140.405 26.191 143.604 27.29Q146.802 28.389 149.121 30.806Q151.441 33.223 152.71 37.129Q153.98 41.035 153.98 46.602V80.0H139.82V46.504Q139.82 42.988 138.819 40.962Q137.818 38.936 135.938 38.081Q134.058 37.227 131.323 37.227Q128.296 37.227 126.172 38.35Q124.048 39.473 122.779 41.426Q122.534 41.816 122.339 42.207V80.0H108.277V5.0Z M273.089 54.658H260.052V80.0H245.403V8.906H273.089Q281.438 8.906 287.42 11.909Q293.401 14.912 296.575 20.186Q299.749 25.459 299.749 32.246Q299.749 39.131 296.575 44.16Q293.401 49.189 287.42 51.924Q281.438 54.658 273.089 54.658ZM260.052 43.232H273.089Q277.288 43.232 279.925 41.841Q282.561 40.449 283.782 37.959Q285.003 35.469 285.003 32.344Q285.003 29.17 283.782 26.436Q282.561 23.701 279.925 22.041Q277.288 20.381 273.089 20.381H260.052Z M335.479 75.02Q334.698 75.898 333.819 76.68Q331.768 78.584 328.887 79.78Q326.006 80.977 322.051 80.977Q317.022 80.977 312.945 78.95Q308.868 76.924 306.499 73.335Q304.131 69.746 304.131 65.156Q304.131 61.006 305.694 57.783Q307.256 54.561 310.308 52.339Q313.36 50.117 317.95 48.97Q322.539 47.822 328.594 47.822H334.893V44.551Q334.893 42.012 334.063 40.181Q333.233 38.35 331.499 37.324Q329.766 36.299 327.032 36.299Q324.688 36.299 322.979 37.104Q321.27 37.91 320.342 39.399Q319.414 40.889 319.414 42.891H305.352Q305.352 39.521 306.914 36.494Q308.477 33.467 311.455 31.147Q314.434 28.828 318.56 27.51Q322.686 26.191 327.813 26.191Q333.965 26.191 338.75 28.242Q343.536 30.293 346.294 34.395Q349.053 38.496 349.053 44.648V67.256Q349.053 71.602 349.59 74.36Q350.127 77.119 351.153 79.17V80.0H336.944Q335.967 77.998 335.479 75.02ZM334.893 55.781H328.985Q326.202 55.781 324.151 56.416Q322.1 57.051 320.782 58.198Q319.463 59.346 318.853 60.859Q318.243 62.373 318.243 64.18Q318.243 65.986 319.073 67.427Q319.903 68.867 321.465 69.673Q323.028 70.479 325.127 70.479Q328.301 70.479 330.645 69.209Q332.989 67.939 334.307 66.084Q334.649 65.596 334.893 65.107Z M371.062 42.549V80.0H357.0V27.168H370.184L370.672 33.467Q370.818 33.271 370.965 33.076Q373.699 29.756 377.483 27.974Q381.268 26.191 385.955 26.191Q389.666 26.191 392.742 27.266Q395.818 28.34 398.04 30.684Q400.262 33.027 401.458 36.885Q402.654 40.742 402.654 46.309V80.0H388.494V46.26Q388.494 42.744 387.518 40.791Q386.541 38.838 384.661 38.032Q382.781 37.227 380.047 37.227Q377.215 37.227 375.14 38.35Q373.064 39.473 371.746 41.426Q371.355 41.963 371.062 42.549Z M436.627 27.168V37.129H427.545V64.082Q427.545 66.377 428.155 67.598Q428.765 68.818 429.986 69.282Q431.207 69.746 433.062 69.746Q434.38 69.746 435.43 69.624Q436.48 69.502 437.212 69.355L437.261 79.707Q435.455 80.293 433.355 80.635Q431.255 80.977 428.716 80.977Q424.078 80.977 420.635 79.438Q417.193 77.9 415.337 74.482Q413.482 71.064 413.482 65.498V37.129H405.865V27.168H413.482V14.131H427.545V27.168Z M471.966 26.826 471.722 39.863Q470.696 39.717 469.256 39.595Q467.816 39.473 466.644 39.473Q463.665 39.473 461.492 40.229Q459.32 40.986 457.904 42.451Q456.732 43.623 456.048 45.186V80.0H441.986V27.168H455.218L455.706 33.662Q455.902 33.271 456.146 32.93Q458.099 29.707 460.98 27.949Q463.861 26.191 467.571 26.191Q468.743 26.191 469.964 26.362Q471.185 26.533 471.966 26.826Z M485.821 27.168 495.782 60.371 505.694 27.168H520.782L499.542 87.959Q498.858 89.961 497.711 92.256Q496.563 94.551 494.635 96.626Q492.706 98.701 489.801 100.02Q486.895 101.338 482.696 101.338Q480.694 101.338 479.425 101.094Q478.155 100.85 476.397 100.41V90.107Q476.934 90.107 477.52 90.132Q478.106 90.156 478.643 90.156Q481.427 90.156 483.184 89.521Q484.942 88.887 486.016 87.593Q487.091 86.299 487.725 84.248L489.288 80.146L470.733 27.168Z" fill="#1B1C19"/><g transform="translate(158.055 16) scale(0.64)" color="#0A5B59"><path d="M 73 15 A 41 41 0 1 0 73 85" fill="none" stroke="currentColor" stroke-width="10" stroke-linecap="round"/><path d="M 61 29 A 25 25 0 1 0 61 71" fill="none" stroke="currentColor" stroke-width="10" stroke-linecap="round"/><path d="M 42 50 Q 69 23 96 50 Q 69 77 42 50 Z" fill="currentColor"/></g></svg>
